# xmcd
#
# Track frame offsets:
#	150
#	8887
#	22820
#	24835
#	37612
#	50480
#	69952
#	80550
#	92415
#	93615
#	107165
#	123752
#	143567
#	164290
#	168470
#	171602
#	181040
#	183130
#	197262
#	207685
#	225482
#	242550
#	259432
#	276455
#	280340
#	303612
#	317085
#	320880
#
# Disc length: 4478 seconds
#
# Revision: 0
# Processed by: cddbd v1.5.2PL0 Copyright (c) Steve Scherf et al.
# Submitted via: audiograbber 1.83.01
#
DISCID=7b117c1c
DTITLE=Royal TS - Alles ist die Sekte (Album Nr. 3)
DYEAR=2001
DGENRE=Rap
TTITLE0=Yippie Kyo N.3 (Intro)
TTITLE1=Rap geht auch gut
TTITLE2=Atze and Matze 1 Skit
TTITLE3=Sag wie!
TTITLE4=Opfermx Nr.2 [CD Bonus Track)
TTITLE5=100Pro
TTITLE6=Wozu?
TTITLE7=Du weißt bescheid (PSX_RMX)
TTITLE8=Atze and Matze 2 Skit
TTITLE9=Passgenauauf feat. Mesut
TTITLE10=Hier gehts um Rap
TTITLE11=Hör auf zu leben feat. Bektas and Mesut
TTITLE12=Erundich
TTITLE13=Skit (Instrumental)
TTITLE14=Im Park Skit
TTITLE15=Opfer
TTITLE16=Bei'm Gig Skit
TTITLE17=Westberlin
TTITLE18=So high... Teil.2
TTITLE19=Bin was ich bin
TTITLE20=Das Mic and Ich
TTITLE21=Haltdichraus! feat. Drew 
TTITLE22=Aber Lan feat. Mesut and Bendt
TTITLE23=Nach'm Gig Skit
TTITLE24=G's and B's (Open Mic) feat. Mesut, Atilla and Cipo
TTITLE25=Opfermx Nr.3 [CD Bonus Track)
TTITLE26=Skit (Instrumental)
TTITLE27=Alle Frauen sind Schlampen!
EXTD=
EXTT0=
EXTT1=
EXTT2=
EXTT3=
EXTT4=
EXTT5=
EXTT6=
EXTT7=
EXTT8=
EXTT9=
EXTT10=
EXTT11=
EXTT12=
EXTT13=
EXTT14=
EXTT15=
EXTT16=
EXTT17=
EXTT18=
EXTT19=
EXTT20=
EXTT21=
EXTT22=
EXTT23=
EXTT24=
EXTT25=
EXTT26=
EXTT27=
PLAYORDER=
